<svg xmlns="http://www.w3.org/2000/svg" viewBox="0 0 126.13 60.26"><path d="M1027.33-63a29.9,29.9,0,0,1,8.83,21.3,29.88,29.88,0,0,1-8.83,21.3A29.86,29.86,0,0,1,1006-11.54a30,30,0,0,1-21.31-8.82l-21.3-21.31L984.74-63A29.92,29.92,0,0,1,1006-71.8,29.91,29.91,0,0,1,1027.33-63Zm-33,33a16.41,16.41,0,0,0,11.7,4.85A16.41,16.41,0,0,0,1017.73-30a16.41,16.41,0,0,0,4.85-11.7,16.43,16.43,0,0,0-4.85-11.7A16.41,16.41,0,0,0,1006-58.22a16.41,16.41,0,0,0-11.7,4.85l-11.7,11.7Z" transform="translate(-910.03 71.8)"/><path d="M959-37.14,951.86-30a16.43,16.43,0,0,1-11.7,4.85A16.43,16.43,0,0,1,928.46-30a16.47,16.47,0,0,1-4.85-11.7,16.42,16.42,0,0,1,4.86-11.7,16.39,16.39,0,0,1,11.69-4.85,16.41,16.41,0,0,1,11.7,4.85L959-46.21l9.6-9.6L961.46-63a29.91,29.91,0,0,0-21.3-8.82A30,30,0,0,0,918.86-63,30,30,0,0,0,910-41.67a29.92,29.92,0,0,0,8.83,21.3,29.92,29.92,0,0,0,21.3,8.83,29.92,29.92,0,0,0,21.3-8.83l7.17-7.17Z" transform="translate(-910.03 71.8)"/></svg>