<svg xmlns="http://www.w3.org/2000/svg" viewBox="0 0 433.89 73"><defs><style>.logo-1{fill:#0071ce;}.logo-2{fill:#ff5100;}</style></defs><path class="logo-1" d="M762.38-41.67A29.93,29.93,0,0,1,771.2-63a29.93,29.93,0,0,1,21.3-8.82A29.91,29.91,0,0,1,813.8-63a29.92,29.92,0,0,1,8.83,21.3v30.12H792.5a29.91,29.91,0,0,1-21.3-8.82A29.91,29.91,0,0,1,762.38-41.67Zm46.67,0a16.43,16.43,0,0,0-4.85-11.7,16.44,16.44,0,0,0-11.7-4.84,16.44,16.44,0,0,0-11.7,4.84A16.46,16.46,0,0,0,776-41.67,16.43,16.43,0,0,0,780.8-30a16.41,16.41,0,0,0,11.7,4.85h16.55Z" transform="translate(-697.6 84.54)"/><path class="logo-1" d="M1070.82-71.79A29.94,29.94,0,0,0,1049.51-63a29.91,29.91,0,0,0-8.82,21.3v30.13h13.58V-41.67a16.43,16.43,0,0,1,4.85-11.7,16.44,16.44,0,0,1,11.7-4.84Z" transform="translate(-697.6 84.54)"/><path class="logo-1" d="M845.26-41.67A29.93,29.93,0,0,1,854.08-63a29.94,29.94,0,0,1,21.31-8.82A29.93,29.93,0,0,1,896.69-63a29.91,29.91,0,0,1,8.82,21.3v30.12H875.38a29.91,29.91,0,0,1-21.3-8.82A30,30,0,0,1,845.26-41.67Zm46.67,0a16.43,16.43,0,0,0-4.85-11.7,16.44,16.44,0,0,0-11.69-4.84,16.47,16.47,0,0,0-11.71,4.84,16.42,16.42,0,0,0-4.84,11.7A16.39,16.39,0,0,0,863.68-30a16.41,16.41,0,0,0,11.7,4.85h16.55Z" transform="translate(-697.6 84.54)"/><path class="logo-1" d="M1027.33-63a29.9,29.9,0,0,1,8.83,21.3,29.88,29.88,0,0,1-8.83,21.3A29.86,29.86,0,0,1,1006-11.54a30,30,0,0,1-21.31-8.82l-21.3-21.31L984.74-63A29.92,29.92,0,0,1,1006-71.8,29.91,29.91,0,0,1,1027.33-63Zm-33,33a16.41,16.41,0,0,0,11.7,4.85A16.41,16.41,0,0,0,1017.73-30a16.41,16.41,0,0,0,4.85-11.7,16.43,16.43,0,0,0-4.85-11.7A16.41,16.41,0,0,0,1006-58.22a16.41,16.41,0,0,0-11.7,4.85l-11.7,11.7Z" transform="translate(-697.6 84.54)"/><path class="logo-2" d="M959-37.14,951.86-30a16.43,16.43,0,0,1-11.7,4.85A16.43,16.43,0,0,1,928.46-30a16.47,16.47,0,0,1-4.85-11.7,16.42,16.42,0,0,1,4.86-11.7,16.39,16.39,0,0,1,11.69-4.85,16.41,16.41,0,0,1,11.7,4.85L959-46.21l9.6-9.6L961.46-63a29.91,29.91,0,0,0-21.3-8.82A30,30,0,0,0,918.86-63,30,30,0,0,0,910-41.67a29.92,29.92,0,0,0,8.83,21.3,29.92,29.92,0,0,0,21.3,8.83,29.92,29.92,0,0,0,21.3-8.83l7.17-7.17Z" transform="translate(-697.6 84.54)"/><path class="logo-1" d="M744.27-77.75v10.9a29.87,29.87,0,0,0-16.54-4.94A29.9,29.9,0,0,0,706.43-63a29.9,29.9,0,0,0-8.83,21.3,30,30,0,0,0,8.82,21.31,29.93,29.93,0,0,0,21.3,8.82h30.13v-73Zm0,52.63H727.72A16.43,16.43,0,0,1,716-30a16.43,16.43,0,0,1-4.84-11.7A16.43,16.43,0,0,1,716-53.37a16.44,16.44,0,0,1,11.7-4.84,16.46,16.46,0,0,1,11.7,4.84,16.46,16.46,0,0,1,4.84,11.7v9.52h0Z" transform="translate(-697.6 84.54)"/><polygon class="logo-1" points="150.14 12.75 143.13 12.75 143.13 0 129.55 6.79 129.55 12.75 129.55 26.33 129.55 73 143.13 73 143.13 26.33 150.14 26.33 150.14 12.75"/><path class="logo-1" d="M1131.5-41.67a29.91,29.91,0,0,0-8.83-21.3,29.47,29.47,0,0,0-5-4,29.86,29.86,0,0,0-16.31-4.8h0a29.94,29.94,0,0,0-21.3,8.83,29.9,29.9,0,0,0-8.82,21.3h0a29.91,29.91,0,0,0,8.82,21.3,30.2,30.2,0,0,0,8.85,6.14,30.11,30.11,0,0,0,12.45,2.68h0a29.9,29.9,0,0,0,21.3-8.82l.37-.38-9.23-10c-.24.27-.48.55-.74.81a16.47,16.47,0,0,1-11.7,4.85A16.45,16.45,0,0,1,1089.68-30a16.46,16.46,0,0,1-3.14-4.41,16.38,16.38,0,0,1-1.71-7.29,16.41,16.41,0,0,1,4.85-11.7,16.41,16.41,0,0,1,11.69-4.85,16.43,16.43,0,0,1,11.7,4.85c.2.2.39.41.57.62l-22.19,11.08h40Z" transform="translate(-697.6 84.54)"/></svg>