<svg xmlns="http://www.w3.org/2000/svg" viewBox="0 0 90.96 97.88"><path d="M248.27,73H292a7.51,7.51,0,0,0,7.5-7.5V26H248.27a2.5,2.5,0,0,1,0-5H300a4.5,4.5,0,0,1,4.5,4.5v40A12.5,12.5,0,0,1,292,78H248.27a2.5,2.5,0,0,1,0-5Zm1.34-92.88h26.72a2.51,2.51,0,0,1,1.77.73L297.39.1a2.51,2.51,0,0,1,.73,1.77v9.87a2.5,2.5,0,1,1-5,0V4.09H278.4A4.3,4.3,0,0,1,274.11-.2V-14.92h-22V11.74a2.5,2.5,0,1,1-5,0V-17.42A2.5,2.5,0,0,1,249.61-19.92Zm29.5,19h10.2l-10.2-10.19ZM270,41.15h3.23a2.5,2.5,0,0,0,0-5H270a2.5,2.5,0,0,0,0,5Zm-13.94,0h3.23a2.5,2.5,0,0,0,0-5h-3.23a2.5,2.5,0,0,0,0,5Zm27.87,0h3.23a2.5,2.5,0,0,0,0-5h-3.22a2.5,2.5,0,0,0,0,5ZM270,52h3.23a2.5,2.5,0,0,0,0-5H270a2.5,2.5,0,0,0,0,5Zm-13.94,0h3.23a2.5,2.5,0,0,0,0-5h-3.23a2.5,2.5,0,0,0,0,5Zm27.87,0h3.23a2.5,2.5,0,0,0,0-5h-3.22a2.5,2.5,0,0,0,0,5ZM270,62.81h3.23a2.5,2.5,0,0,0,0-5H270a2.5,2.5,0,0,0,0,5Zm-13.94,0h3.23a2.5,2.5,0,0,0,0-5h-3.23a2.5,2.5,0,0,0,0,5Zm27.87,0h3.23a2.5,2.5,0,0,0,0-5h-3.22a2.5,2.5,0,0,0,0,5Zm-70.39-40.1A19.27,19.27,0,0,1,238,3.74a4.76,4.76,0,0,1,3.47,4.58V23.08A5.89,5.89,0,0,1,235.58,29h-2V52h2.07a5.89,5.89,0,0,1,5.89,5.88V72.67a4.75,4.75,0,0,1-3.5,4.58,19.26,19.26,0,0,1-24.46-19Zm5,35.59a14.27,14.27,0,0,0,17.94,14.2V57.92a.89.89,0,0,0-.88-.9h-4.53a2.49,2.49,0,0,1-2.54-2.46V26.44a2.49,2.49,0,0,1,.75-1.78,2.59,2.59,0,0,1,1.79-.72h4.53a.89.89,0,0,0,.89-.88V8.51a14.28,14.28,0,0,0-18,14.2Z" transform="translate(-213.54 19.92)"/></svg>