<svg xmlns="http://www.w3.org/2000/svg" viewBox="0 0 261.43 261.43"><path d="M1107.35,431.26a8.44,8.44,0,0,0,0,16.87,38.68,38.68,0,0,1,27.22,11.07,37.09,37.09,0,0,1,11.21,26.55,8.44,8.44,0,1,0,16.87,0,54,54,0,0,0-16.25-38.58A55.62,55.62,0,0,0,1107.35,431.26Z" transform="translate(-986.35 -345.82)"/><path d="M1186.42,489.6c8.38,0,8.44-8.5,8.44-8.6a81.07,81.07,0,0,0-24.41-57.79,83.58,83.58,0,0,0-58.74-23.93,8.44,8.44,0,1,0,0,16.87,66.74,66.74,0,0,1,46.92,19.09A64.12,64.12,0,0,1,1178,481.08C1178,481.19,1177.92,489.6,1186.42,489.6Z" transform="translate(-986.35 -345.82)"/><path d="M1117.06,345.82a130.72,130.72,0,0,0,0,261.43c29.74,0,58.66-8.14,79.12-26.67,24.9-22.54,4.81-38.07-13.71-43,.74-2.56,1.28-4.61,1.4-5.46,1.76-12.42-43.69-30.3-49.83-18-1.72,3.42-4,13.6-14.47,7.36-7.3-4.36-43.19-40.24-47.54-47.54-6.24-10.46,3.94-12.75,7.36-14.46,12.3-6.15-5.58-51.6-18-49.84-2.89.41-19.72,5.67-23.29,7.38-6.78,3.24-16.22,19.17-10,39.52,4.67,15.35,13.68,39.14,41.71,67.16s51.82,37,67.17,41.72c20.35,6.2,36.27-3.24,39.52-10,.32-.67.76-1.79,1.26-3.19,19.3,4.64,14.33,13.84,4.61,20.65-16.71,11.69-41.06,19.08-65.3,19.08a115.41,115.41,0,1,1,115.42-115.41c0,24.16-5.7,39.85-13.32,52.23-6,11.66-2.15,27.71,2.46,23.79,17.5-18.54,26.16-49.12,26.16-76A130.71,130.71,0,0,0,1117.06,345.82Z" transform="translate(-986.35 -345.82)"/></svg>