<svg id="Layer_1" data-name="Layer 1" xmlns="http://www.w3.org/2000/svg" viewBox="0 0 186.5 186.5"><defs><style>.cls-1{fill:#9699b3;}.cls-2{fill:none;stroke:#9699b3;stroke-miterlimit:10;stroke-width:7px;}</style></defs><path class="cls-1" d="M133.57,311.59c-4.51,0-7.46,3-7.46,6.86s2.86,6.86,7.29,6.86h.08c4.6,0,7.46-3.05,7.46-6.86S138.08,311.59,133.57,311.59Z" transform="translate(-63.62 -247.75)"/><path class="cls-1" d="M126.89,330.72h13.19v39.69H126.89Z" transform="translate(-63.62 -247.75)"/><path class="cls-1" d="M172.45,329.79c-7.11,0-11.88,6.69-11.88,6.69v-5.76H147.38v39.69h13.18V348.25A9,9,0,0,1,161,345a7.22,7.22,0,0,1,6.77-4.83c4.77,0,6.68,3.64,6.68,9v21.23h13.19V347.65C187.64,335.46,181.13,329.79,172.45,329.79Z" transform="translate(-63.62 -247.75)"/><circle class="cls-2" cx="93.25" cy="93.25" r="89.75"/></svg>