<svg id="Layer_1" data-name="Layer 1" xmlns="http://www.w3.org/2000/svg" viewBox="0 0 186.5 186.5"><defs><style>.cls-1{fill:#003a65;stroke:#003a65;stroke-miterlimit:10;stroke-width:7px;}.cls-2{fill:#fff;}</style></defs><circle class="cls-1" cx="93.25" cy="93.25" r="89.75"/><path class="cls-2" d="M376.93,311.59c-4.51,0-7.46,3-7.46,6.86s2.86,6.86,7.29,6.86h.08c4.6,0,7.47-3.05,7.47-6.86S381.44,311.59,376.93,311.59Z" transform="translate(-306.98 -247.75)"/><path class="cls-2" d="M370.25,330.72h13.19v39.69H370.25Z" transform="translate(-306.98 -247.75)"/><path class="cls-2" d="M415.81,329.79c-7.11,0-11.88,6.69-11.88,6.69v-5.76H390.74v39.69h13.19V348.25a9,9,0,0,1,.43-3.22,7.24,7.24,0,0,1,6.77-4.83c4.77,0,6.68,3.64,6.68,9v21.23H431V347.65C431,335.46,424.49,329.79,415.81,329.79Z" transform="translate(-306.98 -247.75)"/></svg>